<?xml version="1.0" encoding="iso-8859-1"?>
<!-- Generator: Adobe Illustrator 19.0.0, SVG Export Plug-In . SVG Version: 6.00 Build 0)  -->
<svg version="1.1" id="Capa_1" xmlns="http://www.w3.org/2000/svg" xmlns:xlink="http://www.w3.org/1999/xlink" x="0px" y="0px"
	 viewBox="0 0 512 512" style="enable-background:new 0 0 512 512;fill:#fff" xml:space="preserve">
<g>
	<g>
		<path d="M0,0v512h512V0H0z M482,482H30V30h452V482z"/>
	</g>
</g>
<g>
	<g>
		<polygon points="187.54,219.28 163.06,286.24 211.06,286.24 		"/>
	</g>
</g>
<g>
	<g>
		<path d="M337.301,247.36c-16.926,0-30.926,12.765-32.4,31.2h65.28C368.25,258.5,353.75,247.36,337.301,247.36z"/>
	</g>
</g>
<g>
	<g>
		<path d="M60,60v392h392V60H60z M232.9,352l-15.84-42.48h-59.52L141.94,352h-34.08l65.04-170.4h29.28l64.8,170.4H232.9z
			 M402.581,299.44h-97.2c0.48,4.961,5.786,31.44,33.36,31.44c17.842,0,27.679-11.917,29.76-17.04l27.6,7.68
			c-4.643,9.6-20.351,32.88-58.56,32.88c-40.166,0-66.24-29.775-66.24-64.56c0-31.215,21.699-65.76,66.48-65.76
			c31.969,0,65.52,21.17,65.52,64.56C403.301,290.721,402.9,298.161,402.581,299.44z"/>
	</g>
</g>
<g>
</g>
<g>
</g>
<g>
</g>
<g>
</g>
<g>
</g>
<g>
</g>
<g>
</g>
<g>
</g>
<g>
</g>
<g>
</g>
<g>
</g>
<g>
</g>
<g>
</g>
<g>
</g>
<g>
</g>
</svg>
