<?xml version="1.0" encoding="utf-8"?>
<!-- Generator: Adobe Illustrator 23.0.1, SVG Export Plug-In . SVG Version: 6.00 Build 0)  -->
<svg version="1.1" id="Calque_1" xmlns="http://www.w3.org/2000/svg" xmlns:xlink="http://www.w3.org/1999/xlink" x="0px" y="0px"
	 viewBox="0 0 512 512" style="enable-background:new 0 0 512 512;" xml:space="preserve">
<style type="text/css">
	.st0{fill:#FFFFFF;}
</style>
<path class="st0" d="M240.9,307.1v-144c-64.6,7.5-114.9,62.5-114.9,129c0,71.6,58.3,129.9,129.9,129.9c66.5,0,121.5-50.3,129-114.9
	H240.9z"/>
<path class="st0" d="M270.9,277.1h114c-6.9-59.6-54.4-107.1-114-114V277.1z"/>
<path class="st0" d="M411.3,136.7c-29.5-29.5-65.8-49.5-105.4-58.7V30h30V0H175.8v30h30v48c-39.6,9.2-76,29.2-105.4,58.7
	C58.9,178.2,36,233.4,36,292.1c0,58.7,22.9,113.9,64.4,155.5S197.1,512,255.9,512s113.9-22.9,155.5-64.4
	c41.5-41.5,64.4-96.7,64.4-155.5C475.7,233.4,452.9,178.2,411.3,136.7z M255.9,452C167.7,452,96,380.3,96,292.1
	c0-88.2,71.7-159.9,159.9-159.9S415.7,204,415.7,292.1C415.7,380.3,344,452,255.9,452z"/>
</svg>
