<?xml version="1.0" encoding="UTF-8" standalone="no" ?>
<svg width="256px" height="256px" viewBox="0 0 256 256" version="1.1" xmlns="http://www.w3.org/2000/svg" xmlns:xlink="http://www.w3.org/1999/xlink" preserveAspectRatio="xMidYMid">
    <defs>
        <path id="path-1" d="M255.774254,0 C252.399891,68.4647791 242.410695,131.708591 215.744528,191.254384 C195.276518,236.959819 148.479079,260.749775 95.7033099,254.055791 C52.3241998,248.554202 12.5442779,211.449182 2.85984385,167.45544 C-7.94571431,118.366562 12.3304449,67.0117363 55.8774239,44.6588453 C117.3484,13.1043487 184.550898,4.1254431 255.774254,0"></path>
    </defs>
    <g>
        
        <use xlink:href="#path-1"></use>
        <g mask="url(#mask-2)">
            <path d="M113.789102,76.0935034 C113.789102,76.0935034 107.895706,108.750515 105.550539,125.297227 C93.6138642,115.993758 69.9913193,99.0675577 69.9913193,99.0675577 C69.9913193,99.0675577 88.5238407,123.990986 97.2750039,135.122992 C80.6499922,137.007453 47.3240281,142.196464 47.3240281,142.196464 C47.3240281,142.196464 81.4074005,147.67808 97.28,149.512609 C88.074192,161.169907 69.9063856,184.804072 69.9063856,184.804072 C69.9063856,184.804072 94.5871038,167.756036 105.67744,159.210546 C107.939672,175.070183 113.789102,208.848684 113.789102,208.848684 C113.789102,208.848684 119.139922,175.098146 121.173333,158.650301 C132.137767,167.19579 155.287681,185.045747 155.287681,185.045747 C155.287681,185.045747 139.160281,160.904265 130.32918,149.501624 C146.370648,147.618161 178.966183,142.196464 178.966183,142.196464 C178.966183,142.196464 146.052896,136.954525 130.44509,135.149955 C138.522779,124.202701 155.44256,99.0545752 155.44256,99.0545752 C155.44256,99.0545752 131.732084,117.442807 121.15235,125.9114 C119.194879,109.569412 113.789102,76.0935034 113.789102,76.0935034 M255.800156,0.461378531 C252.425792,68.9261577 242.436596,132.169969 215.770429,191.715762 C195.30242,237.421198 148.50498,261.211153 95.7292116,254.51717 C52.3501015,249.01558 12.5701795,211.91056 2.88574551,167.916819 C-7.91981265,118.827941 12.3563466,67.4731149 55.9033255,45.1202238 C117.374301,13.5657272 184.576799,4.58682163 255.800156,0.461378531" fill="#fff"></path>
            
        </g>
    </g>
</svg>
