<?xml version="1.0" encoding="iso-8859-1"?>
<!-- Generator: Adobe Illustrator 19.0.0, SVG Export Plug-In . SVG Version: 6.00 Build 0)  -->
<svg version="1.1" id="Capa_1" xmlns="http://www.w3.org/2000/svg" xmlns:xlink="http://www.w3.org/1999/xlink" x="0px" y="0px"
	 viewBox="0 0 512 512" style="enable-background:new 0 0 512 512;fill:#fff" xml:space="preserve">
<g>
	<g>
		<path d="M0,0v512h512V0H0z M482,482H30V30h452V482z"/>
	</g>
</g>
<g>
	<g>
		<path d="M286.901,251.44c-21.901,0-32.88,21.727-32.88,38.4c0,18.327,13.479,37.2,34.8,37.2c20.179,0,29.358-18.079,30.479-21.12
			v-30C318.019,272.402,306.5,251.44,286.901,251.44z"/>
	</g>
</g>
<g>
	<g>
		<path d="M60,60v392h392V60H60z M197.381,352h-33.119V181.6h33.119V352z M345.22,353.68c-23.221,0-21.119-23.52-21.119-23.52
			c-4.643,8.002-18.477,24.24-43.68,24.24c-36.922,0-59.761-30.775-59.761-65.28c0-39.12,26.339-65.04,56.16-65.04
			c25.262,0,38.317,17.04,42.479,24.24V176.8h32.16v138.24c0,3.36,4.718,9.442,7.44,9.6V352h0.002
			C353.298,353.118,348.738,353.68,345.22,353.68z"/>
	</g>
</g>
<g>
</g>
<g>
</g>
<g>
</g>
<g>
</g>
<g>
</g>
<g>
</g>
<g>
</g>
<g>
</g>
<g>
</g>
<g>
</g>
<g>
</g>
<g>
</g>
<g>
</g>
<g>
</g>
<g>
</g>
</svg>
