<?xml version="1.0" encoding="utf-8"?>
<!-- Svg Vector Icons : http://www.onlinewebfonts.com/icon -->
<!DOCTYPE svg PUBLIC "-//W3C//DTD SVG 1.1//EN" "http://www.w3.org/Graphics/SVG/1.1/DTD/svg11.dtd">
<svg version="1.1" xmlns="http://www.w3.org/2000/svg" xmlns:xlink="http://www.w3.org/1999/xlink" x="0px" y="0px" viewBox="0 0 1000 1000" enable-background="new 0 0 1000 1000" xml:space="preserve" style="fill:#fff">
<metadata> Svg Vector Icons : http://www.onlinewebfonts.com/icon </metadata>
<g><g transform="translate(0.000000,618.000000) scale(0.100000,-0.100000)"><path d="M5796.2,5694.1c-236.3-325.2-352.9-589.1-400.4-902.1c-55.2-372.8,6.1-774.7,178-1142.9C5895.9,2952.6,6617,2388,7361,2248.4c204-36.8,734.9-36.8,912.8,3.1c360.5,78.2,647.4,225.5,905.1,463.3c110.5,102.8,306.8,359,382,500.1l52.1,96.6l-89-96.6c-372.8-408.1-938.9-555.4-1649.2-434.2c-550.8,95.1-1006.4,328.3-1394.5,710.3c-670.4,664.3-897.5,1574-575.3,2310.4c20,43,33.8,79.8,30.7,79.8C5934.3,5881.2,5869.8,5796.9,5796.2,5694.1z"/><path d="M3616.2,5037.5c-276.1-391.2-383.5-573.8-481.7-823.8c-210.2-532.3-240.9-1198.1-84.4-1816.4c99.7-392.7,262.3-747.1,518.5-1133.7c164.2-247,231.7-328.3,448-544.6c495.5-497.1,1032.5-831.5,1676.8-1043.2C6215-494.6,7023.5-516.1,7667.8-378C8546.9-187.8,9275.6,350.7,9722,1139.2c73.6,127.3,177.9,357.5,177.9,388.1c0,9.2-35.3-29.2-76.7-84.4c-239.3-316-661.2-638.2-1054-808.5c-449.5-193.3-885.2-273.1-1406.8-256.2c-1882.4,56.8-3563.8,1549.5-3783.2,3355.1c-62.9,518.5,41.4,1142.9,262.3,1584.8c24.6,47.6,42.9,87.5,39.9,87.5C3878.5,5405.7,3760.4,5240,3616.2,5037.5z"/><path d="M1054.2,4129.3c-378.9-480.2-452.6-586-581.4-848.4C202.8,2731.7,78.5,2136.4,103,1509C178.2-451.7,1505.2-2294.2,3449-3134.9c501.7-217.9,871.4-309.9,1452.8-366.7c360.5-33.8,1014-23,1319.4,23c839.2,124.3,1546.4,421.9,2164.6,909.7c494,389.7,1026.3,1060.1,1245.7,1569.4l39.9,92.1l-73.6-84.4c-449.5-520.1-960.4-865.3-1612.4-1090.8c-495.5-170.3-961.9-243.9-1552.5-243.9c-635.1,0-1133.7,72.1-1643.1,239.3c-695,227.1-1340.8,586-1906.9,1058.5C2652.8-835.2,2280-456.2,2102-232.3C1466.9,562.4,1098.7,1444.5,1000.5,2411c-23,224-9.2,770.1,24.5,984.9c53.7,346.7,162.6,714.9,291.5,992.6c36.8,78.2,64.4,142.7,61.4,142.7S1229.1,4350.2,1054.2,4129.3z"/></g></g>
</svg>