<svg id="svg-themosis" viewBox="0 0 101.5 98.23"  xmlns="http://www.w3.org/2000/svg" xmlns:xlink="http://www.w3.org/1999/xlink" width="100%" height="100%" style="fill:#fff">
    <path d="M12.87,63.68a4.13,4.13,0,0,1,0-5.84l35-35a4.12,4.12,0,0,1,5.83,0h0a4.12,4.12,0,0,1,0,5.83l-35,35A4.16,4.16,0,0,1,12.87,63.68Z"></path>
	<path d="M30.37,22.86a4.13,4.13,0,0,1,0,5.84L7,52a4.12,4.12,0,0,1-5.83,0h0a4.12,4.12,0,0,1,0-5.83L24.53,22.87A4.16,4.16,0,0,1,30.37,22.86Z"></path>
	<path d="M74.1,31.61,53.69,52a4.12,4.12,0,1,1-5.83-5.83L65.53,28.52a3.88,3.88,0,0,0,0-5.48l-12-12A3.89,3.89,0,0,0,48,11l-6,6a4.16,4.16,0,0,1-5.83,0,4.09,4.09,0,0,1,0-5.83l8.75-8.75a8.17,8.17,0,0,1,11.66,0L74.1,19.94A8.1,8.1,0,0,1,74.1,31.61Z"></path>
	<path d="M88.68,34.52a4.13,4.13,0,0,0-5.84,0l-35,35a4.12,4.12,0,0,0,0,5.83h0a4.12,4.12,0,0,0,5.83,0l35-35A4.16,4.16,0,0,0,88.68,34.52Z"></path>
	<path d="M82.71,63.72a4.13,4.13,0,0,0,5.84,0L100.3,52a4.12,4.12,0,0,0,0-5.83h0a4.12,4.12,0,0,0-5.83,0L82.72,57.89A4.15,4.15,0,0,0,82.71,63.72Z"></path>
	<path d="M56.61,95.75,77,75.34a4.12,4.12,0,1,0-5.83-5.83L53.52,87.18a3.88,3.88,0,0,1-5.48,0l-12-12a3.89,3.89,0,0,1,0-5.48l6-6a4.16,4.16,0,0,0,0-5.83,4.09,4.09,0,0,0-5.83,0l-8.75,8.75a8.17,8.17,0,0,0,0,11.66L44.94,95.75A8.1,8.1,0,0,0,56.61,95.75Z"></path>
</svg>